<svg width="48" height="33" viewBox="0 0 48 33" fill="none" xmlns="http://www.w3.org/2000/svg">
<g clip-path="url(#clip0_2_2)">
<mask id="mask0_2_2" style="mask-type:luminance" maskUnits="userSpaceOnUse" x="0" y="0" width="48" height="33">
<path d="M48 0H0V32.9492H48V0Z" fill="white"/>
</mask>
<g mask="url(#mask0_2_2)">
<path d="M15.5039 7.68012C15.4859 6.80547 15.2879 6.63174 14.5979 6.69764L14.3999 6.71561C14.4539 10.0165 14.5919 13.3234 14.8079 16.6363H15.0599C15.6119 16.6243 15.8339 16.4087 15.7799 15.4082C15.6479 12.8262 15.5579 10.2502 15.5039 7.68012Z" fill="white"/>
<path d="M33.558 6.67972L33.294 6.65576C33.258 10.6756 33.09 14.7193 32.814 18.7571H33.084C33.624 18.7571 33.84 18.4516 33.906 17.517C34.134 14.276 34.278 11.041 34.344 7.81198C34.356 6.97327 34.05 6.72765 33.564 6.68572L33.558 6.67972Z" fill="white"/>
<path d="M24.312 4.55898C23.982 4.55898 23.802 4.79861 23.808 5.51151C23.832 12.4188 23.85 19.3861 23.85 26.2994C23.85 26.8985 23.988 27.252 24.318 27.252C24.612 27.252 24.786 26.9404 24.798 26.2934C24.87 19.3741 24.9 12.3949 24.876 5.48155C24.876 4.76865 24.714 4.55299 24.318 4.547L24.312 4.55898Z" fill="white"/>
<path d="M6.372 10.5497C6.312 9.7829 6 9.63912 5.514 9.71101L5.25 9.75294C5.472 12.7483 5.832 15.7497 6.3 18.7451H6.564C7.098 18.7451 7.236 18.4695 7.122 17.6188C6.804 15.2584 6.552 12.9041 6.366 10.5497H6.372Z" fill="white"/>
<path d="M39.258 8.3091C39.33 6.57778 39.366 4.84645 39.372 3.11512C36.252 2.57595 33.108 2.19853 29.946 1.98886C29.946 1.39577 29.94 0.802688 29.934 0.215594C26.196 -0.0599811 22.44 -0.0719626 18.702 0.18564C18.702 0.778725 18.696 1.37181 18.696 1.96489C15.552 2.16259 12.426 2.51604 9.318 3.03724C9.318 3.65429 9.33 4.26534 9.342 4.88239C6.228 5.34368 3.114 5.95474 0 6.70957C0.48 13.6109 1.74 20.5602 3.498 27.4556C6.144 28.0127 8.802 28.468 11.466 28.8095C11.532 29.2528 11.598 29.6961 11.67 30.1394C14.298 30.5288 16.926 30.7924 19.554 30.9302C19.572 31.2237 19.584 31.5113 19.602 31.8048C22.728 31.9906 25.86 31.9786 28.98 31.7809C28.998 31.4873 29.016 31.1998 29.034 30.9062C30.624 30.8164 32.214 30.6786 33.804 30.4929C33.804 30.4989 33.804 30.5108 33.804 30.5228C33.852 32.1643 35.448 33.0509 36.984 32.9371C37.848 32.8712 38.166 32.7993 38.85 32.6196C40.836 32.1044 42.396 30.4449 43.386 29.085C44.472 27.5874 45.246 25.4367 45.6 23.9749C46.884 18.6851 47.484 14.9349 48.006 9.63905C45.114 9.09389 42.198 8.65058 39.264 8.3091H39.258ZM7.488 21.4588C7.242 21.4468 6.996 21.4348 6.75 21.4229C7.056 23.1662 7.398 24.9035 7.77 26.6408C6.762 26.4791 5.76 26.2993 4.752 26.1016C3.192 20.1049 2.052 14.0662 1.578 8.06348C3.048 7.71602 4.518 7.39851 5.988 7.11694C8.568 6.61372 9.774 8.00957 9.912 10.5437C10.038 12.8142 10.224 15.0846 10.458 17.3551C10.74 20.1468 9.972 21.5966 7.488 21.4588ZM16.896 29.097C16.74 28.8035 16.302 24.6938 16.05 21.0934C15.942 19.5298 15.81 19.41 15.144 19.41H14.976C15.216 22.615 15.51 25.8141 15.864 29.0012C14.874 28.9053 13.884 28.7915 12.9 28.6597C11.688 20.6201 10.896 12.4787 10.83 4.43908C12.294 4.20544 13.758 4.01373 15.222 3.85797C18.114 3.55844 19.02 5.12801 19.05 7.65012C19.08 10.0404 19.128 12.4367 19.194 14.833C19.242 16.6482 18.744 17.5708 17.946 18.0501C18.984 18.5773 19.278 19.4699 19.38 21.8123C19.452 23.7473 19.686 28.6657 19.782 29.2887C18.822 29.2408 17.856 29.1749 16.89 29.091L16.896 29.097ZM27.978 25.8021C27.816 28.9952 26.364 30.2293 24.198 30.2353C22.11 30.2353 20.82 28.9113 20.7 25.8081C20.472 19.1703 20.316 12.4787 20.274 5.85289C20.256 2.94738 21.954 1.58149 24.294 1.58748C26.634 1.59946 28.434 2.9953 28.44 6.06257C28.44 12.6224 28.272 19.2303 27.978 25.8021ZM33.336 21.7583C33.084 21.7643 32.832 21.7703 32.586 21.7763C32.388 24.2086 32.154 26.6348 31.89 29.0551C30.894 29.145 29.898 29.2168 28.902 29.2708C29.484 20.7459 29.82 12.0953 29.754 3.57042C31.23 3.66627 32.706 3.80406 34.182 3.98378C36.768 4.31327 37.968 6.08653 37.878 8.61463C37.776 11.5201 37.584 14.4317 37.296 17.3492C37.008 20.1408 35.838 21.6745 33.33 21.7583H33.336ZM45.54 15.8575C45.48 16.2349 45.414 16.6123 45.348 16.9957C44.388 16.9598 43.428 16.9178 42.456 16.8879C42.528 16.3846 42.594 15.8874 42.66 15.3842C42.786 14.3837 42.684 14.1082 42.366 14.0782C42.108 14.0542 41.934 14.3418 41.826 15.2404C41.7 16.2828 41.67 17.5468 42.48 18.8648C43.92 21.2132 44.592 21.7883 43.872 24.7118C43.446 26.3832 42.72 27.7491 41.802 28.8095C40.884 29.8698 39.768 30.6307 38.484 30.9362C36.21 31.5113 35.052 29.5643 35.568 25.7182C35.628 25.2929 35.688 24.8616 35.742 24.4362C36.732 24.3643 37.722 24.2864 38.712 24.1966C38.616 24.7537 38.52 25.3049 38.418 25.856C38.136 27.3956 38.994 27.2639 39.282 27.2159C39.546 27.174 40.374 27.0302 40.722 25.4307C41.022 23.945 40.926 24.0049 40.02 22.3754C38.784 20.1648 38.136 18.8888 38.442 15.8395C38.76 12.4607 39.744 9.93859 42.57 10.3699C44.118 10.6036 44.97 11.3764 45.372 12.3768C45.78 13.3773 45.732 14.6054 45.528 15.8575H45.54Z" fill="white"/>
</g>
</g>
<defs>
<clipPath id="clip0_2_2">
<rect width="48" height="33" fill="white"/>
</clipPath>
</defs>
</svg>
