<svg width="48" height="48" viewBox="0 0 48 48" fill="none" xmlns="http://www.w3.org/2000/svg">
<g clip-path="url(#clip0_583_4643)">
<path d="M15.5066 14.1916C15.4902 13.3164 15.2893 13.1424 14.6017 13.2062L14.4023 13.225C14.4588 16.5284 14.5939 19.8406 14.8076 23.1615L15.0619 23.1571C15.614 23.1483 15.8332 22.9317 15.7827 21.9339C15.6508 19.3503 15.5588 16.7696 15.5066 14.1916Z" fill="white"/>
<path d="M33.5573 13.1891L33.2911 13.165C33.2544 17.1926 33.0859 21.2403 32.8105 25.2827H33.0819C33.6236 25.2827 33.8361 24.9768 33.9033 24.0388C34.1316 20.7957 34.2772 17.5552 34.3401 14.3173C34.3549 13.4764 34.0444 13.2343 33.5573 13.1891Z" fill="white"/>
<path d="M24.3108 11.0659C23.9779 11.0659 23.8012 11.3048 23.8047 12.0212C23.8303 18.9368 23.8458 25.9177 23.8472 32.843C23.8472 33.4409 23.984 33.8 24.3145 33.7997C24.6059 33.7997 24.7847 33.4875 24.7917 32.8418C24.863 25.9097 24.8922 18.922 24.8698 11.9997C24.8667 11.2836 24.7103 11.0674 24.3108 11.0659Z" fill="white"/>
<path d="M6.37409 17.0643C6.31704 16.2964 5.99987 16.1508 5.51813 16.2269L5.25586 16.2686C5.48024 19.2668 5.83744 22.2726 6.30354 25.2757H6.56949C7.10199 25.2771 7.24432 25 7.12837 24.1458C6.80813 21.7847 6.55671 19.4242 6.37409 17.0643Z" fill="white"/>
<path d="M39.2584 14.8193C39.3287 13.0831 39.3675 11.3499 39.3748 9.61981C36.2552 9.07968 33.1084 8.70306 29.9478 8.49156C29.9449 7.89867 29.9405 7.30627 29.9348 6.71438C26.197 6.43868 22.4438 6.42889 18.7046 6.68508C18.7008 7.27787 18.6985 7.87117 18.6976 8.46497C15.5547 8.66056 12.4247 9.01992 9.32086 9.54153C9.32413 10.1577 9.33134 10.7744 9.34249 11.3917C6.22628 11.8547 3.11212 12.4642 0 13.2202C0.47714 20.1318 1.74184 27.0907 3.49688 33.9972C6.14285 34.5575 8.79848 35.0089 11.4638 35.3516C11.53 35.7949 11.5976 36.2381 11.6664 36.6812C14.2955 37.0691 16.923 37.3341 19.5489 37.4762C19.5652 37.7684 19.5816 38.0605 19.5982 38.3524C22.7216 38.5358 25.8537 38.5288 28.9762 38.3314C28.9951 38.04 29.0136 37.7484 29.0317 37.4566C30.6207 37.3641 32.2103 37.2265 33.8007 37.0439C33.799 37.0528 33.7978 37.0619 33.7973 37.0709C33.8433 38.7161 35.4433 39.6057 36.9767 39.49C37.8416 39.4245 38.1614 39.3497 38.8425 39.1736C40.8311 38.6596 42.3892 36.9927 43.3777 35.6306C44.4645 34.1329 45.2347 31.9778 45.5927 30.5097C46.8755 25.2103 47.4755 21.4543 48.0006 16.1492C45.106 15.6055 42.1919 15.1622 39.2584 14.8193ZM7.48746 27.9946C7.24053 27.9822 6.9938 27.9694 6.74728 27.9562C7.05464 29.7003 7.39477 31.4418 7.76767 33.1806C6.76032 33.0165 5.75476 32.8372 4.751 32.6427C3.19213 26.6376 2.05273 20.587 1.57866 14.5747C3.04601 14.2252 4.51598 13.91 5.98855 13.629C8.57133 13.1278 9.77316 14.5224 9.90981 17.0627C10.0381 19.3353 10.2199 21.6103 10.455 23.8875C10.7368 26.6828 9.9661 28.1363 7.48746 27.9946ZM16.8948 35.6425C16.7362 35.349 16.3016 31.2326 16.0482 27.628C15.9378 26.0631 15.8083 25.9438 15.1433 25.9402L14.9774 25.9393C15.2163 29.1507 15.5116 32.3538 15.8632 35.5486C14.8747 35.4526 13.8861 35.3393 12.8975 35.2086C11.686 27.158 10.8958 19.0041 10.8296 10.9495C12.2953 10.7168 13.7588 10.5225 15.2202 10.3667C18.1129 10.0662 19.0195 11.6407 19.0494 14.167C19.0779 16.5603 19.1266 18.9581 19.1954 21.3605C19.2459 23.1769 18.7474 24.1011 17.9486 24.5842C18.9847 25.1101 19.283 26.0081 19.3805 28.3533C19.4548 30.2903 19.6886 35.2144 19.7843 35.8386C18.8214 35.7898 17.8582 35.7244 16.8948 35.6425ZM27.979 32.3399C27.8167 35.5364 26.3623 36.7754 24.2013 36.7829C22.1145 36.7791 20.8251 35.4568 20.7014 32.3505C20.4713 25.7009 20.3161 19.0029 20.2759 12.3633C20.2606 9.45092 21.9541 8.08633 24.2969 8.08889C26.6384 8.0979 28.4391 9.49885 28.4428 12.5727C28.4425 19.1398 28.2726 25.7635 27.979 32.3399ZM33.3372 28.2899C33.0865 28.2968 32.8356 28.3034 32.5846 28.3096C32.3872 30.7464 32.155 33.1772 31.888 35.6021C30.8926 35.6922 29.8975 35.7645 28.9026 35.819C29.4863 27.28 29.8188 18.6186 29.7573 10.0773C31.2317 10.1753 32.708 10.3125 34.1864 10.489C36.7721 10.8196 37.9747 12.5963 37.8847 15.1282C37.7843 18.0391 37.59 20.9552 37.3019 23.8764C37.0155 26.6697 35.843 28.2056 33.3372 28.2899ZM45.5439 22.3779C45.4817 22.7571 45.4173 23.1365 45.3507 23.5159C44.3918 23.477 43.4279 23.4408 42.4591 23.4073C42.5307 22.9052 42.5985 22.4033 42.6627 21.9014C42.79 20.8982 42.6895 20.6214 42.3713 20.5942C42.1154 20.5725 41.9374 20.86 41.8315 21.7601C41.7044 22.8046 41.6782 24.0708 42.4849 25.3926C43.9277 27.7443 44.5985 28.3225 43.8777 31.2482C43.4498 32.9241 42.7274 34.2884 41.8102 35.3552C40.89 36.4148 39.7761 37.177 38.4943 37.485C36.2191 38.0589 35.0642 36.1081 35.5803 32.2603C35.6407 31.8318 35.6996 31.4031 35.7569 30.9741C36.7487 30.9032 37.7383 30.8231 38.7256 30.7337C38.6313 31.2888 38.5339 31.8434 38.4334 32.3976C38.154 33.9419 39.0101 33.8064 39.2965 33.76C39.5598 33.7188 40.3914 33.5764 40.7372 31.972C41.0392 30.486 40.9388 30.5458 40.0331 28.911C38.7966 26.696 38.1494 25.4219 38.458 22.3663C38.7758 18.9799 39.7616 16.4587 42.5867 16.8857C44.1358 17.1192 44.9846 17.8945 45.3882 18.8931C45.7936 19.8975 45.7477 21.1245 45.5439 22.3779Z" fill="white"/>
</g>
<defs>
<clipPath id="clip0_583_4643">
<rect width="48" height="33" fill="white" transform="translate(0 6.5)"/>
</clipPath>
</defs>
</svg>
